<svg width="89" height="76" viewBox="0 0 89 76" fill="none" xmlns="http://www.w3.org/2000/svg">
<g clip-path="url(#clip0)">
<path fill-rule="evenodd" clip-rule="evenodd" d="M81.5602 39.8781C80.5302 39.8881 79.4602 40.1081 78.3702 40.6281L59.6202 49.6581C58.7302 47.6081 56.5902 46.1881 54.1802 46.2481L43.4302 46.5581C40.7902 46.5581 38.7902 45.9381 36.2702 45.2181C33.7502 44.4881 30.7602 43.6881 26.6102 43.6881C23.1902 43.6881 18.5702 44.7381 14.8302 45.9981V43.6581C14.8302 43.3981 14.7702 43.1181 14.6702 42.8781C14.5702 42.6381 14.4502 42.4081 14.2602 42.2181C14.0702 42.0381 13.8502 41.9081 13.6002 41.8081C13.3602 41.7081 13.0802 41.6481 12.8202 41.6481H2.00023C1.74023 41.6481 1.49023 41.7081 1.25023 41.8081C1.01023 41.9081 0.780234 42.0281 0.590234 42.2181C0.400234 42.4081 0.250234 42.6281 0.150234 42.8781C0.0502344 43.1181 -0.00976562 43.3981 -0.00976562 43.6581V51.8181V73.4081C-0.00976562 73.6681 0.0502344 73.9181 0.150234 74.1581C0.250234 74.3981 0.400234 74.6281 0.590234 74.8181C0.780234 75.0081 1.00023 75.1581 1.25023 75.2581C1.49023 75.3581 1.74023 75.4181 2.00023 75.4181H12.8402C13.1002 75.4181 13.3802 75.3581 13.6202 75.2581C13.8602 75.1581 14.0902 75.0081 14.2802 74.8181C14.4602 74.6281 14.5902 74.4081 14.6902 74.1581C14.7902 73.9181 14.8502 73.6681 14.8502 73.4081V70.8481C28.0102 68.5181 35.8702 72.478 47.7302 72.468C50.1902 72.468 52.7602 71.2981 55.9802 69.6281C59.2002 67.9581 62.8802 65.7181 66.6102 63.3181C74.0602 58.5081 81.6702 53.0081 85.6402 50.3181C87.0002 49.3981 87.8202 47.9381 87.9802 46.5081C88.1502 45.0681 87.7502 43.6681 86.9502 42.5081C85.8402 40.8981 83.8402 39.8481 81.5602 39.8781ZM4.00023 45.6581H5.84023V71.4081H4.00023V51.8181V45.6581Z" fill="#B0C1C4"/>
<path fill-rule="evenodd" clip-rule="evenodd" d="M58.7702 -0.00195312C64.3002 -0.00195312 68.8302 4.52804 68.8302 10.058V31.3981C68.8302 36.9281 64.3002 41.488 58.7702 41.488C53.2402 41.488 48.6802 36.9281 48.6802 31.3981V10.058C48.6802 4.52804 53.2402 -0.00195312 58.7702 -0.00195312ZM61.7702 6.84808C61.7002 6.84808 61.6502 6.84808 61.5802 6.84808C61.5102 6.84808 61.4302 6.86805 61.3602 6.87805C61.2302 6.89805 61.1102 6.92808 60.9802 6.96808C60.8602 7.01808 60.7502 7.08808 60.6402 7.15808C60.3602 7.33808 60.1202 7.58805 59.9502 7.87805C59.7902 8.16805 59.6702 8.47805 59.6702 8.81805V14.7581C59.6702 14.8981 59.7002 15.0581 59.7302 15.1981C59.7502 15.2581 59.7702 15.3181 59.7902 15.3881C59.8102 15.4481 59.8202 15.5181 59.8502 15.5781C59.8802 15.6381 59.9102 15.678 59.9402 15.738C60.0402 15.908 60.1702 16.0681 60.3202 16.2081C60.3702 16.2581 60.4202 16.2981 60.4802 16.3281C60.5302 16.3681 60.5802 16.4181 60.6402 16.4481C60.8102 16.5481 61.0102 16.6181 61.2002 16.6681C61.3902 16.7181 61.5902 16.7381 61.7902 16.7281C61.9202 16.7181 62.0702 16.6981 62.2002 16.6681C62.3302 16.6381 62.4602 16.598 62.5802 16.548C62.6402 16.518 62.6802 16.4881 62.7402 16.4581C62.9102 16.3481 63.0802 16.198 63.2102 16.048C63.3402 15.898 63.4402 15.728 63.5202 15.548C63.6002 15.368 63.6502 15.188 63.6802 14.988C63.6902 14.918 63.6802 14.8381 63.6802 14.7681V8.82806C63.6802 8.74806 63.6902 8.68803 63.6802 8.60803C63.6702 8.53803 63.6602 8.48809 63.6502 8.41809C63.6402 8.35809 63.6102 8.29809 63.5902 8.22809C63.5702 8.16809 63.5602 8.09809 63.5302 8.03809C63.4702 7.91809 63.3902 7.79806 63.3102 7.69806C63.1502 7.47806 62.9402 7.30809 62.7202 7.16809C62.6102 7.09809 62.5002 7.02809 62.3802 6.97809C62.2502 6.93809 62.1402 6.90806 62.0002 6.88806C61.9202 6.86806 61.8402 6.84808 61.7702 6.84808ZM64.8302 22.748H52.6802V31.4081C52.6802 34.7581 55.4302 37.498 58.7702 37.498C62.1202 37.498 64.8302 34.7481 64.8302 31.4081V22.748Z" fill="#B0C1C4"/>
<path fill-rule="evenodd" clip-rule="evenodd" d="M34.8604 12.8481C38.1404 12.8481 41.4304 14.0781 43.9204 16.5681C48.9004 21.5481 48.9004 29.7081 43.9204 34.6881C38.9304 39.6781 30.7804 39.6781 25.8004 34.6881C20.8204 29.7081 20.8204 21.5481 25.8004 16.5681C28.2904 14.0681 31.5804 12.8481 34.8604 12.8481ZM34.8604 16.8081C33.2404 16.8081 31.6304 17.2581 30.2004 18.1481L42.3604 30.2681C44.4904 26.8681 44.0504 22.3581 41.0804 19.3881C39.3504 17.6781 37.1204 16.8081 34.8604 16.8081ZM27.3604 20.9681C25.2304 24.3681 25.6704 28.8781 28.6404 31.8481C31.6104 34.8181 36.1104 35.2281 39.5204 33.0981L27.3604 20.9681Z" fill="#B0C1C4"/>
</g>
<defs>
<clipPath id="clip0">
<rect width="88.01" height="75.41" fill="white"/>
</clipPath>
</defs>
</svg>
