<svg width="24" height="24" viewBox="0 0 24 24" fill="none" xmlns="http://www.w3.org/2000/svg">
<circle cx="12" cy="12" r="12" fill="#FE7D85"/>
<path d="M13.0439 13.6787H11.376L11.0273 7H13.3926L13.0439 13.6787ZM11 16.0166C11 15.6338 11.1025 15.3444 11.3076 15.1484C11.5127 14.9525 11.8112 14.8545 12.2031 14.8545C12.5814 14.8545 12.873 14.9548 13.0781 15.1553C13.2878 15.3558 13.3926 15.6429 13.3926 16.0166C13.3926 16.3766 13.2878 16.6615 13.0781 16.8711C12.8685 17.0762 12.5768 17.1787 12.2031 17.1787C11.8203 17.1787 11.5241 17.0785 11.3145 16.8779C11.1048 16.6729 11 16.3857 11 16.0166Z" fill="#FFFFFB"/>
</svg>
