<svg  width="13" height="19"  viewBox="0 0 13 19" >
<path d="M12.3324 16.5486C8.77222 14.8404 7.1532 10.3019 8.71265 6.40878C9.42199 4.64134 10.7134 3.22621 12.3324 2.45055C12.4705 2.38542 12.5328 2.21075 12.4732 2.05976C12.4516 2.00351 12.4136 1.95614 12.3649 1.92654C8.53938 -0.634316 3.53884 0.677197 1.19424 4.86042C-1.15035 9.04364 0.0517276 14.5117 3.87726 17.0726C5.15786 17.9311 6.63338 18.3841 8.13598 18.3811C9.63046 18.3811 11.0952 17.9282 12.3676 17.0726C12.4949 16.9867 12.5355 16.8061 12.457 16.667C12.4272 16.6137 12.3839 16.5752 12.3351 16.5486H12.3324Z" fill="currentColor"//>
</svg>
