<svg width="21" height="21" viewBox="0 0 21 21">
<path d="M10.1973 4.07959C6.81855 4.07959 4.07886 6.81928 4.07886 10.198C4.07886 13.5767 6.81855 16.3164 10.1973 16.3164C13.576 16.3164 16.3157 13.5767 16.3157 10.198C16.3157 6.81928 13.576 4.07959 10.1973 4.07959Z" fill="currentColor"/>
<path d="M10.1975 17.3359C10.0105 17.3359 9.85754 17.4889 9.85754 17.6758V20.0552C9.85754 20.2422 10.0105 20.3951 10.1975 20.3951C10.3844 20.3951 10.5374 20.2422 10.5374 20.0552V17.6758C10.5374 17.4889 10.3844 17.3359 10.1975 17.3359Z" fill="currentColor"/>
<path d="M10.1975 3.0597C10.3844 3.0597 10.5374 2.90674 10.5374 2.71979V0.340401C10.5374 0.153449 10.3844 0.000488281 10.1975 0.000488281C10.0105 0.000488281 9.85754 0.153449 9.85754 0.340401V2.71979C9.85754 2.90674 10.0105 3.0597 10.1975 3.0597Z" fill="currentColor"/>
<path d="M15.7243 15.2458C15.5815 15.1235 15.3674 15.1405 15.245 15.2832C15.1363 15.409 15.1363 15.5993 15.245 15.7251L16.9276 17.4077C17.0704 17.53 17.2845 17.5131 17.4069 17.3703C17.5156 17.2445 17.5156 17.0542 17.4069 16.9284L15.7243 15.2458Z" fill="currentColor"/>
<path d="M4.6704 5.15035C4.81316 5.27272 5.0273 5.25573 5.14967 5.11296C5.25844 4.9872 5.25844 4.79684 5.14967 4.67108L3.46711 2.98851C3.32434 2.86614 3.1102 2.88314 2.98783 3.0259C2.87906 3.15167 2.87906 3.34202 2.98783 3.46779L4.6704 5.15035Z" fill="currentColor"/>
<path d="M20.0547 9.85791H17.6754C17.4884 9.85791 17.3354 10.0109 17.3354 10.1978C17.3354 10.3848 17.4884 10.5377 17.6754 10.5377H20.0547C20.2417 10.5377 20.3947 10.3848 20.3947 10.1978C20.3947 10.0109 20.2417 9.85791 20.0547 9.85791Z" fill="currentColor"/>
<path d="M3.05921 10.1978C3.05921 10.0109 2.90625 9.85791 2.7193 9.85791H0.339912C0.152961 9.85791 0 10.0109 0 10.1978C0 10.3848 0.152961 10.5377 0.339912 10.5377H2.7193C2.90625 10.5377 3.05921 10.3848 3.05921 10.1978Z" fill="currentColor"/>
<path d="M15.4864 5.24873C15.5781 5.24873 15.6631 5.21474 15.7277 5.15016L17.4103 3.46759C17.5326 3.32483 17.5156 3.11069 17.3729 2.98832C17.2471 2.87955 17.0567 2.87955 16.931 2.98832L15.2484 4.67088C15.1158 4.80345 15.1158 5.01759 15.245 5.15016C15.3096 5.21474 15.398 5.25213 15.4898 5.25213L15.4864 5.24873Z" fill="currentColor"/>
<path d="M4.67038 15.2456L2.98782 16.9282C2.84505 17.0506 2.82806 17.2647 2.95043 17.4075C3.07279 17.5502 3.28694 17.5672 3.4297 17.4449C3.4433 17.4347 3.45689 17.4211 3.46709 17.4075L5.14966 15.7249C5.27203 15.5822 5.25503 15.368 5.11227 15.2456C4.9865 15.1369 4.79615 15.1369 4.67038 15.2456Z" fill="currentColor"/>
</svg>
